<svg width="78" height="16" viewBox="0 0 78 16" fill="none" xmlns="http://www.w3.org/2000/svg">
<g clip-path="url(#clip0_18341_13743)">
<g clip-path="url(#clip1_18341_13743)">
<g clip-path="url(#clip2_18341_13743)">
<path d="M77.4647 0.615318L77.4623 0.608398L75.4251 6.75624H69.7279L74.3794 9.87523L72.4503 15.6084L77.4623 11.9485L77.4647 11.9502V0.615318Z" fill="#AA832F"/>
<path d="M3.22236 15.6084L5.15144 9.87523L0.5 6.75624H6.19712L8.23437 0.608398L10.3077 6.75624H15.9687L11.3173 9.87523L13.2825 15.6084L8.23437 11.9485L3.22236 15.6084Z" fill="#AA832F"/>
<path d="M20.5293 15.6084L22.4584 9.87523L17.807 6.75624H23.5041L25.5414 0.608398L27.6147 6.75624H33.2757L28.6243 9.87523L30.5894 15.6084L25.5414 11.9485L20.5293 15.6084Z" fill="#AA832F"/>
<path d="M39.7654 9.87523L37.8363 15.6084L42.8483 11.9485L47.8964 15.6084L45.9313 9.87523L50.5827 6.75624H44.9217L42.8483 0.608398L40.8111 6.75624H35.114L39.7654 9.87523Z" fill="#AA832F"/>
<path d="M55.1433 15.6084L57.0724 9.87523L52.421 6.75624H58.1181L60.1553 0.608398L62.2287 6.75624H67.8897L63.2383 9.87523L65.2034 15.6084L60.1553 11.9485L55.1433 15.6084Z" fill="#AA832F"/>
</g>
</g>
</g>
<defs>
<clipPath id="clip0_18341_13743">
<rect width="77" height="15" fill="white" transform="translate(0.5 0.608398)"/>
</clipPath>
<clipPath id="clip1_18341_13743">
<rect width="77" height="15" fill="white" transform="translate(0.5 0.608398)"/>
</clipPath>
<clipPath id="clip2_18341_13743">
<rect width="77" height="15" fill="white" transform="translate(0.5 0.608398)"/>
</clipPath>
</defs>
</svg>
