<svg width="18" height="14" viewBox="0 0 18 14" fill="none" xmlns="http://www.w3.org/2000/svg">
<path d="M15.2477 1.4809C14.0651 0.939459 12.8166 0.555349 11.5342 0.338379C11.3587 0.652089 11.1999 0.974859 11.0585 1.30534C9.6925 1.09949 8.3033 1.09949 6.93722 1.30534C6.79573 0.974899 6.63694 0.652129 6.46152 0.338379C5.17826 0.557179 3.92896 0.942209 2.74515 1.48373C0.394979 4.96084 -0.242111 8.35154 0.0764391 11.6942C1.45275 12.711 2.99324 13.4844 4.63094 13.9806C4.99971 13.4846 5.32601 12.9585 5.6064 12.4077C5.07384 12.2088 4.55982 11.9634 4.0703 11.6743C4.19914 11.5809 4.32514 11.4846 4.4469 11.3912C5.87129 12.061 7.4259 12.4084 9 12.4084C10.574 12.4084 12.1287 12.061 13.5531 11.3912C13.6762 11.4917 13.8023 11.588 13.9297 11.6743C13.4392 11.9639 12.9242 12.2097 12.3907 12.4091C12.6708 12.9596 12.9971 13.4854 13.3662 13.9806C15.0053 13.4864 16.547 12.7134 17.9235 11.6956C18.2973 7.81924 17.285 4.45966 15.2477 1.4809ZM6.0099 9.63854C5.12221 9.63854 4.38885 8.83294 4.38885 7.84194C4.38885 6.85084 5.09673 6.03824 6.00707 6.03824C6.9174 6.03824 7.6451 6.85084 7.6295 7.84194C7.614 8.83294 6.91457 9.63854 6.0099 9.63854ZM11.9901 9.63854C11.101 9.63854 10.3704 8.83294 10.3704 7.84194C10.3704 6.85084 11.0783 6.03824 11.9901 6.03824C12.9018 6.03824 13.6239 6.85084 13.6083 7.84194C13.5927 8.83294 12.8947 9.63854 11.9901 9.63854Z" fill="white"/>
</svg>
