<svg width="79" height="79" viewBox="0 0 79 79" fill="none" xmlns="http://www.w3.org/2000/svg">
<g filter="url(#filter0_b_18341_13457)">
<path d="M0 20C0 8.95431 8.95431 0 20 0H58.7061C69.7517 0 78.7061 8.9543 78.7061 20V58.5002C78.7061 69.5459 69.7517 78.5002 58.7061 78.5002H20C8.9543 78.5002 0 69.5459 0 58.5002V20Z" fill="url(#paint0_radial_18341_13457)" fill-opacity="0.5"/>
<path d="M0.5 20C0.5 9.23045 9.23045 0.5 20 0.5H58.7061C69.4756 0.5 78.2061 9.23045 78.2061 20V58.5002C78.2061 69.2698 69.4756 78.0002 58.7061 78.0002H20C9.23045 78.0002 0.5 69.2698 0.5 58.5002V20Z" stroke="url(#paint1_radial_18341_13457)" stroke-opacity="0.5"/>
</g>
<path d="M51.0889 27.1282H50.8905V25.1165H48.8694V27.1282H48.6711C48.271 27.1232 47.874 27.1976 47.5029 27.3473C47.1319 27.4969 46.7942 27.7187 46.5096 27.9999C46.2249 28.281 45.9989 28.6159 45.8447 28.985C45.6905 29.3542 45.6111 29.7503 45.6111 30.1504V42.2393C45.6111 43.0408 45.9295 43.8095 46.4963 44.3763C47.063 44.9431 47.8318 45.2615 48.6333 45.2615H48.8316V53.3176H50.8433V45.2615H51.0416C51.4425 45.2677 51.8406 45.1942 52.2127 45.0451C52.5848 44.8961 52.9236 44.6744 53.2093 44.3932C53.4949 44.1119 53.7218 43.7766 53.8766 43.4068C54.0314 43.037 54.1111 42.6402 54.1111 42.2393V30.1504C54.1111 29.3488 53.7927 28.5801 53.2259 28.0133C52.6591 27.4466 51.8904 27.1282 51.0889 27.1282ZM52.0994 42.2393C52.0994 42.5073 51.9929 42.7643 51.8034 42.9538C51.6139 43.1434 51.3569 43.2498 51.0889 43.2498H48.6711C48.4031 43.2498 48.146 43.1434 47.9565 42.9538C47.767 42.7643 47.6605 42.5073 47.6605 42.2393V30.1504C47.6605 29.8824 47.767 29.6253 47.9565 29.4358C48.146 29.2463 48.4031 29.1398 48.6711 29.1398H51.0889C51.3569 29.1398 51.6139 29.2463 51.8034 29.4358C51.9929 29.6253 52.0994 29.8824 52.0994 30.1504V42.2393Z" fill="#AA832F"/>
<path d="M40.2089 34.1832H40.0106V25.1165H37.9895V34.1832H37.7911C36.9896 34.1832 36.2209 34.5016 35.6541 35.0683C35.0873 35.6351 34.7689 36.4038 34.7689 37.2054V48.2837C34.7689 49.0853 35.0873 49.854 35.6541 50.4207C36.2209 50.9875 36.9896 51.3059 37.7911 51.3059H37.9895V53.3176H40.0011V51.3059H40.1995C41.001 51.3059 41.7697 50.9875 42.3365 50.4207C42.9033 49.854 43.2217 49.0853 43.2217 48.2837V37.2054C43.2217 36.4055 42.9046 35.6382 42.3399 35.0717C41.7751 34.5052 41.0088 34.1857 40.2089 34.1832ZM41.2195 48.2837C41.2195 48.5517 41.113 48.8088 40.9235 48.9983C40.734 49.1878 40.4769 49.2943 40.2089 49.2943H37.7911C37.5231 49.2943 37.2661 49.1878 37.0766 48.9983C36.8871 48.8088 36.7806 48.5517 36.7806 48.2837V37.2054C36.7806 36.9374 36.8871 36.6803 37.0766 36.4908C37.2661 36.3013 37.5231 36.1948 37.7911 36.1948H40.2089C40.4769 36.1948 40.734 36.3013 40.9235 36.4908C41.113 36.6803 41.2195 36.9374 41.2195 37.2054V48.2837Z" fill="#AA832F"/>
<path d="M29.3289 27.1282H29.1306V25.1165H27.1095V27.1282H26.9111C26.1096 27.1282 25.3409 27.4466 24.7741 28.0133C24.2073 28.5801 23.8889 29.3488 23.8889 30.1504V42.2393C23.8889 43.0408 24.2073 43.8095 24.7741 44.3763C25.3409 44.9431 26.1096 45.2615 26.9111 45.2615H27.1095V53.3176H29.1306V45.2615H29.3289C29.729 45.2665 30.126 45.192 30.4971 45.0424C30.8681 44.8927 31.2058 44.6709 31.4904 44.3898C31.7751 44.1086 32.0011 43.7738 32.1553 43.4046C32.3095 43.0355 32.3889 42.6393 32.3889 42.2393V30.1504C32.3889 29.7503 32.3095 29.3542 32.1553 28.985C32.0011 28.6159 31.7751 28.281 31.4904 27.9999C31.2058 27.7187 30.8681 27.4969 30.4971 27.3473C30.126 27.1976 29.729 27.1232 29.3289 27.1282ZM30.3395 42.2393C30.3395 42.5073 30.233 42.7643 30.0435 42.9538C29.854 43.1434 29.5969 43.2498 29.3289 43.2498H26.9111C26.6431 43.2498 26.3861 43.1434 26.1966 42.9538C26.0071 42.7643 25.9006 42.5073 25.9006 42.2393V30.1504C25.9006 29.8824 26.0071 29.6253 26.1966 29.4358C26.3861 29.2463 26.6431 29.1398 26.9111 29.1398H29.3289C29.5969 29.1398 29.854 29.2463 30.0435 29.4358C30.233 29.6253 30.3395 29.8824 30.3395 30.1504V42.2393Z" fill="#AA832F"/>
<defs>
<filter id="filter0_b_18341_13457" x="-5" y="-5" width="88.7061" height="88.5002" filterUnits="userSpaceOnUse" color-interpolation-filters="sRGB">
<feFlood flood-opacity="0" result="BackgroundImageFix"/>
<feGaussianBlur in="BackgroundImageFix" stdDeviation="2.5"/>
<feComposite in2="SourceAlpha" operator="in" result="effect1_backgroundBlur_18341_13457"/>
<feBlend mode="normal" in="SourceGraphic" in2="effect1_backgroundBlur_18341_13457" result="shape"/>
</filter>
<radialGradient id="paint0_radial_18341_13457" cx="0" cy="0" r="1" gradientUnits="userSpaceOnUse" gradientTransform="translate(6.5838) rotate(47.9449) scale(117.499 85.3716)">
<stop stop-color="white" stop-opacity="0.36"/>
<stop offset="1" stop-color="white" stop-opacity="0"/>
</radialGradient>
<radialGradient id="paint1_radial_18341_13457" cx="0" cy="0" r="1" gradientUnits="userSpaceOnUse" gradientTransform="translate(6.5838) rotate(47.9449) scale(117.499 85.3716)">
<stop stop-color="white" stop-opacity="0.36"/>
<stop offset="1" stop-color="white" stop-opacity="0"/>
</radialGradient>
</defs>
</svg>
