<svg width="79" height="79" viewBox="0 0 79 79" fill="none" xmlns="http://www.w3.org/2000/svg">
<g filter="url(#filter0_b_18341_13440)">
<path d="M0 20C0 8.95431 8.95431 0 20 0H58.7061C69.7517 0 78.7061 8.9543 78.7061 20V58.5002C78.7061 69.5459 69.7517 78.5002 58.7061 78.5002H20C8.9543 78.5002 0 69.5459 0 58.5002V20Z" fill="url(#paint0_radial_18341_13440)" fill-opacity="0.5"/>
<path d="M0.5 20C0.5 9.23045 9.23045 0.5 20 0.5H58.7061C69.4756 0.5 78.2061 9.23045 78.2061 20V58.5002C78.2061 69.2698 69.4756 78.0002 58.7061 78.0002H20C9.23045 78.0002 0.5 69.2698 0.5 58.5002V20Z" stroke="url(#paint1_radial_18341_13440)" stroke-opacity="0.5"/>
</g>
<path d="M32.8925 55.3503C33.0066 55.3817 33.1207 55.3964 33.2347 55.3964C33.8128 55.3964 34.3434 55.0106 34.5011 54.4249C34.6895 53.725 34.2755 53.0047 33.5744 52.8163C27.4964 51.1776 23.25 45.6257 23.25 39.3151C23.25 31.6035 29.5241 25.33 37.235 25.33C44.8716 25.33 51.1458 31.5407 51.2201 39.1747C51.2278 39.8951 51.8135 40.4744 52.5326 40.4744H52.5454C53.2709 40.4674 53.8515 39.8739 53.8451 39.1491C53.7567 30.0821 46.3046 22.705 37.235 22.705C28.0757 22.705 20.625 30.1564 20.625 39.3151C20.625 46.8101 25.6699 53.404 32.8925 55.3503Z" fill="#AA832F"/>
<path d="M37.235 50.1894C37.9605 50.1894 38.5475 49.6017 38.5475 48.8769V47.9995C40.7189 47.4164 42.33 45.4505 42.33 43.0975C42.33 42.7277 42.2928 42.3752 42.2159 42.0228C41.7147 39.6932 39.6204 38.0026 37.235 38.0026C36.0789 38.0026 35.0625 37.1836 34.8203 36.0595C34.7831 35.8858 34.7651 35.7134 34.7651 35.5327C34.7651 34.1708 35.8726 33.0628 37.235 33.0628C38.5975 33.0628 39.705 34.1708 39.705 35.5327C39.705 35.7134 39.687 35.8839 39.6498 36.0531C39.496 36.7612 39.9459 37.4604 40.6547 37.6142C41.3584 37.77 42.0608 37.3194 42.2159 36.6106C42.2928 36.2556 42.33 35.9031 42.33 35.5327C42.33 33.1797 40.7189 31.2138 38.5475 30.6307V29.7533C38.5475 29.0285 37.9605 28.4408 37.235 28.4408C36.5096 28.4408 35.9225 29.0285 35.9225 29.7533V30.6307C33.7512 31.2138 32.1401 33.1797 32.1401 35.5327C32.1401 35.8993 32.1773 36.2498 32.2529 36.6087C32.7554 38.9376 34.851 40.6276 37.235 40.6276C38.3912 40.6276 39.4076 41.446 39.6498 42.5765C39.687 42.7463 39.705 42.9168 39.705 43.0975C39.705 44.4594 38.5975 45.5674 37.235 45.5674C35.8726 45.5674 34.7651 44.4594 34.7651 43.0975C34.7651 42.9168 34.7831 42.7444 34.8203 42.5701C34.9702 41.8613 34.5165 41.1646 33.8077 41.014C33.1053 40.8692 32.4016 41.3178 32.2516 42.0266C32.1773 42.3817 32.1401 42.7322 32.1401 43.0975C32.1401 45.4505 33.7512 47.4164 35.9225 47.9995V48.8769C35.9225 49.6017 36.5096 50.1894 37.235 50.1894Z" fill="#AA832F"/>
<path d="M44.8934 47.4554C44.6473 47.2093 44.3141 47.0709 43.9655 47.0709C43.6168 47.0709 43.2836 47.2093 43.0375 47.4554L37.0043 53.4885C36.4916 54.0012 36.4916 54.8318 37.0043 55.3445C37.2607 55.6008 37.5965 55.729 37.9323 55.729C38.2681 55.729 38.6039 55.6008 38.8603 55.3445L43.9655 50.2393L46.8289 53.1034C47.075 53.3495 47.4082 53.4879 47.7568 53.4879C48.1055 53.4879 48.4387 53.3495 48.6848 53.1034L53.3451 48.4426L53.3447 49.7101C53.3444 50.9209 54.8083 51.5275 55.6645 50.6714C55.9193 50.4165 56.0625 50.0709 56.0625 49.7105V45.2285C56.0625 44.478 55.4542 43.8697 54.7036 43.8697H50.2217C49.8613 43.8697 49.5157 44.0128 49.2608 44.2676C48.4047 45.1238 49.0113 46.5877 50.2221 46.5873L51.4886 46.587L47.7568 50.3188L44.8934 47.4554Z" fill="#AA832F"/>
<defs>
<filter id="filter0_b_18341_13440" x="-5" y="-5" width="88.7061" height="88.5002" filterUnits="userSpaceOnUse" color-interpolation-filters="sRGB">
<feFlood flood-opacity="0" result="BackgroundImageFix"/>
<feGaussianBlur in="BackgroundImageFix" stdDeviation="2.5"/>
<feComposite in2="SourceAlpha" operator="in" result="effect1_backgroundBlur_18341_13440"/>
<feBlend mode="normal" in="SourceGraphic" in2="effect1_backgroundBlur_18341_13440" result="shape"/>
</filter>
<radialGradient id="paint0_radial_18341_13440" cx="0" cy="0" r="1" gradientUnits="userSpaceOnUse" gradientTransform="translate(6.5838) rotate(47.9449) scale(117.499 85.3716)">
<stop stop-color="white" stop-opacity="0.36"/>
<stop offset="1" stop-color="white" stop-opacity="0"/>
</radialGradient>
<radialGradient id="paint1_radial_18341_13440" cx="0" cy="0" r="1" gradientUnits="userSpaceOnUse" gradientTransform="translate(6.5838) rotate(47.9449) scale(117.499 85.3716)">
<stop stop-color="white" stop-opacity="0.36"/>
<stop offset="1" stop-color="white" stop-opacity="0"/>
</radialGradient>
</defs>
</svg>
