<svg width="10" height="19" viewBox="0 0 10 19" fill="none" xmlns="http://www.w3.org/2000/svg">
<path d="M9.5 3.771H6.5C5.9477 3.771 5.5 4.21872 5.5 4.771V7.771H9.5C9.6137 7.76848 9.7216 7.8214 9.7892 7.9129C9.8568 8.0044 9.8758 8.123 9.84 8.231L9.1 10.431C9.0318 10.6329 8.8431 10.7694 8.63 10.771H5.5V18.271C5.5 18.5471 5.2761 18.771 5 18.771H2.5C2.22386 18.771 2 18.5471 2 18.271V10.771H0.5C0.22386 10.771 0 10.5471 0 10.271V8.271C0 7.9949 0.22386 7.771 0.5 7.771H2V4.771C2 2.56186 3.7909 0.770996 6 0.770996H9.5C9.7761 0.770996 10 0.994856 10 1.271V3.271C10 3.54714 9.7761 3.771 9.5 3.771Z" fill="white"/>
</svg>
