<svg width="18" height="19" viewBox="0 0 18 19" fill="none" xmlns="http://www.w3.org/2000/svg">
<path fill-rule="evenodd" clip-rule="evenodd" d="M2 0.770996H16C17.1046 0.770996 18 1.66643 18 2.771V16.771C18 17.8756 17.1046 18.771 16 18.771H2C0.89543 18.771 0 17.8756 0 16.771V2.771C0 1.66643 0.89543 0.770996 2 0.770996ZM5 15.771C5.27614 15.771 5.5 15.5471 5.5 15.271V8.271C5.5 7.9949 5.27614 7.771 5 7.771H3.5C3.22386 7.771 3 7.9949 3 8.271V15.271C3 15.5471 3.22386 15.771 3.5 15.771H5ZM4.25 6.771C3.42157 6.771 2.75 6.09943 2.75 5.271C2.75 4.44257 3.42157 3.771 4.25 3.771C5.07843 3.771 5.75 4.44257 5.75 5.271C5.75 6.09943 5.07843 6.771 4.25 6.771ZM14.5 15.771C14.7761 15.771 15 15.5471 15 15.271V10.671C15.0325 9.0818 13.8576 7.72552 12.28 7.531C11.177 7.43025 10.1083 7.9454 9.5 8.871V8.271C9.5 7.9949 9.2761 7.771 9 7.771H7.5C7.2239 7.771 7 7.9949 7 8.271V15.271C7 15.5471 7.2239 15.771 7.5 15.771H9C9.2761 15.771 9.5 15.5471 9.5 15.271V11.521C9.5 10.6926 10.1716 10.021 11 10.021C11.8284 10.021 12.5 10.6926 12.5 11.521V15.271C12.5 15.5471 12.7239 15.771 13 15.771H14.5Z" fill="white"/>
</svg>
