<svg width="18" height="19" viewBox="0 0 18 19" fill="none" xmlns="http://www.w3.org/2000/svg">
<path fill-rule="evenodd" clip-rule="evenodd" d="M13 0.770996H5C2.23858 0.770996 0 3.00958 0 5.771V13.771C0 16.5324 2.23858 18.771 5 18.771H13C15.7614 18.771 18 16.5324 18 13.771V5.771C18 3.00958 15.7614 0.770996 13 0.770996ZM16.25 13.771C16.2445 15.5636 14.7926 17.0155 13 17.021H5C3.20735 17.0155 1.75549 15.5636 1.75 13.771V5.771C1.75549 3.97835 3.20735 2.52649 5 2.521H13C14.7926 2.52649 16.2445 3.97835 16.25 5.771V13.771ZM13.75 6.021C14.3023 6.021 14.75 5.57328 14.75 5.021C14.75 4.46872 14.3023 4.021 13.75 4.021C13.1977 4.021 12.75 4.46872 12.75 5.021C12.75 5.57328 13.1977 6.021 13.75 6.021ZM9 5.271C6.51472 5.271 4.5 7.28572 4.5 9.771C4.5 12.2563 6.51472 14.271 9 14.271C11.4853 14.271 13.5 12.2563 13.5 9.771C13.5027 8.5767 13.0294 7.43057 12.1849 6.58608C11.3404 5.74159 10.1943 5.26834 9 5.271ZM6.25 9.771C6.25 11.2898 7.4812 12.521 9 12.521C10.5188 12.521 11.75 11.2898 11.75 9.771C11.75 8.2522 10.5188 7.021 9 7.021C7.4812 7.021 6.25 8.2522 6.25 9.771Z" fill="white"/>
</svg>
