<svg width="133" height="26" viewBox="0 0 133 26" fill="none" xmlns="http://www.w3.org/2000/svg">
<path d="M108.62 0.25354H103.27L98.7692 13.2356L101.094 19.9805L108.62 0.25354Z" fill="white"/>
<path d="M112.937 25.8914H107.919L117.586 0.579906H122.013L112.937 25.8914Z" fill="white"/>
<path d="M124.928 6.85352L122.567 13.3083L127.068 25.8553H132.307L124.928 6.85352Z" fill="white"/>
<path d="M35.3828 0.289795H31.3612V25.7101H36.379V9.42804L49.5875 25.7101H53.7936V23.3892L35.3828 0.289795Z" fill="white"/>
<path d="M0 25.8551V11.2412H15.3485V15.4114H5.05467V25.8551H0Z" fill="white"/>
<path d="M0.0737915 4.46006V0.108521H17.4146V4.46006H0.0737915Z" fill="white"/>
<path d="M53.7934 0.289795H48.7388V10.3709L53.7934 16.6443V0.289795Z" fill="white"/>
<path d="M25.9745 0.25354H20.9567V25.6376H25.9745V0.25354Z" fill="white"/>
<path d="M79.7769 13.1079C79.7769 18.9069 75.363 23.3551 70.2672 23.3551C65.1811 23.3551 60.7949 18.9173 60.7949 13.1079C60.7949 7.27043 65.2073 2.75354 70.2672 2.75354C75.3367 2.75354 79.7769 7.28091 79.7769 13.1079Z" stroke="white" stroke-width="5"/>
<path d="M89.364 0.32605H84.1216L94.0487 25.7101H98.5847L89.364 0.32605Z" fill="white"/>
</svg>
