<svg width="73" height="80" viewBox="0 0 73 80" fill="none" xmlns="http://www.w3.org/2000/svg">
<path d="M56.0747 45.1996C41.2383 65.9619 21.0124 64.1959 5.39105 55.3887" stroke="#AA832F" stroke-miterlimit="10" stroke-linecap="round" stroke-linejoin="round"/>
<path d="M7.76714 52.3993L2.33166 53.045L4.25005 59.3568" stroke="#AA832F" stroke-miterlimit="10" stroke-linecap="round" stroke-linejoin="round"/>
<path d="M33.3167 22.1867C33.0932 22.1688 32.9121 22.1488 32.7734 22.1267C32.637 22.1164 32.5688 22.1112 32.5688 22.1112C32.581 22.0478 32.5589 21.997 32.5027 21.959C32.4582 21.9187 32.3701 21.9052 32.2382 21.9184C32.041 21.8465 31.8499 21.7429 31.6648 21.6075C31.4938 21.4817 31.3464 21.3513 31.2226 21.2163C31.0987 21.0814 31.003 20.9654 30.9354 20.8685C30.8188 20.7077 30.7571 20.6096 30.7502 20.5743C30.7529 20.5248 30.8134 20.4582 30.9316 20.3742C31.043 20.2549 31.1316 20.2073 31.1973 20.2312C31.2748 20.2529 31.38 20.3548 31.513 20.5369C31.7185 20.7783 32.0176 20.9344 32.4101 21.0052C32.8145 21.0738 33.2452 21.0578 33.7025 20.9572C34.1692 20.8426 34.5964 20.6501 34.9842 20.3797C35.386 20.1187 35.6217 19.8837 35.6913 19.6747C35.7704 19.4517 35.6803 19.2063 35.4208 18.9387C35.3672 18.8513 35.3112 18.7826 35.2527 18.7328C35.1942 18.683 35.1028 18.6212 34.9786 18.5475C34.8661 18.4714 34.6775 18.349 34.4126 18.1801C34.22 18.1318 34.0402 18.0871 33.8734 18.046C33.7183 18.0026 33.5504 17.9556 33.3695 17.905C33.1628 17.8472 32.9068 17.756 32.6017 17.6317C32.3061 17.4932 32.0188 17.3348 31.7399 17.1565C31.4611 16.9781 31.2504 16.805 31.1079 16.6369C30.8853 16.4966 30.6972 16.2824 30.5438 15.9943C30.3881 15.6944 30.2879 15.3654 30.2432 15.0074C30.1984 14.6494 30.2253 14.3142 30.3239 14.0018C30.3627 13.8232 30.4418 13.6001 30.5613 13.3326C30.6902 13.0511 30.8368 12.7661 31.0011 12.4777C31.1654 12.1893 31.3283 11.9256 31.4899 11.6866C31.6515 11.4476 31.7892 11.2744 31.9028 11.1669C31.9789 11.0544 32.0608 10.9408 32.1487 10.8261C32.2342 10.6995 32.277 10.6363 32.277 10.6363C32.2774 10.5751 32.2894 10.5422 32.3129 10.5377C32.3483 10.5308 32.366 10.5274 32.366 10.5274C32.418 10.4807 32.5363 10.3967 32.7206 10.2756C32.905 10.1544 33.0934 9.95913 33.2858 9.68975C34.0023 9.16022 34.591 8.7593 35.0517 8.48697C35.5124 8.21464 35.9018 8.04775 36.2199 7.9863C36.5168 7.94118 36.7955 7.96066 37.0562 8.04474C37.3264 8.11477 37.5574 8.23513 37.7493 8.40584C37.9529 8.57427 38.0997 8.79646 38.1897 9.0724C38.3268 9.33924 38.367 9.6737 38.3102 10.0758C38.2512 10.466 38.1239 10.8512 37.9284 11.2312C37.7424 11.5971 37.5181 11.8909 37.2554 12.1128C36.9528 12.3179 36.7415 12.426 36.6214 12.4369C36.5108 12.4339 36.4398 12.3193 36.4083 12.0931C36.3901 11.9989 36.3979 11.8812 36.4318 11.7403C36.4775 11.597 36.6157 11.332 36.8465 10.9452C37.1166 10.3186 37.261 9.83235 37.2797 9.48652C37.2985 9.14068 37.1866 8.97286 36.9441 8.98303C36.8689 8.97312 36.7393 8.99816 36.5553 9.05814C36.3831 9.11585 36.1897 9.18988 35.9749 9.28026C35.7697 9.35657 35.595 9.43309 35.451 9.50981C35.3046 9.57474 35.2337 9.61899 35.2383 9.64256C35.2383 9.64256 35.2417 9.66023 35.2485 9.69558C35.2553 9.73092 35.2341 9.74726 35.1846 9.74458C35.1611 9.74913 35.07 9.81561 34.9115 9.94401C34.753 10.0724 34.5648 10.2371 34.347 10.4381C34.1291 10.639 33.9113 10.84 33.6935 11.0409C33.4756 11.2419 33.2897 11.4184 33.1357 11.5703C32.9913 11.7082 32.9154 11.7901 32.9082 11.816C32.9097 11.9501 32.7969 12.0941 32.57 12.2479C32.3617 12.4349 32.1835 12.6832 32.0356 12.9928C31.8994 13.3002 31.7522 13.677 31.594 14.1231C31.446 14.4328 31.3615 14.7547 31.3405 15.0887C31.3172 15.411 31.365 15.6584 31.4839 15.831C31.5792 16.0081 31.8085 16.2144 32.1717 16.4498C32.535 16.6851 32.9725 16.8939 33.4844 17.0762C33.9282 17.2226 34.3308 17.3771 34.6922 17.5395C35.0513 17.6901 35.3503 17.8462 35.5893 18.0078C35.8401 18.1672 36.0156 18.3166 36.1159 18.4561C36.296 18.6291 36.4359 18.8159 36.5358 19.0166C36.6452 19.2033 36.7181 19.3908 36.7545 19.5793C36.8027 19.7656 36.8181 19.9398 36.8005 20.1021C36.7545 20.3066 36.6447 20.5294 36.4713 20.7707C36.3097 21.0097 36.1571 21.1369 36.0134 21.1525C35.8907 21.2128 35.7985 21.2734 35.7369 21.3342C35.6871 21.3927 35.6244 21.4476 35.5487 21.4989C35.4754 21.562 35.3077 21.6432 35.0458 21.7427C34.7957 21.8399 34.5128 21.9251 34.1969 21.9984C33.8834 22.0834 33.5899 22.1462 33.3167 22.1867ZM38.8475 19.5417C38.7822 19.4565 38.7096 19.3972 38.6298 19.3637C38.5477 19.3185 38.5021 19.2723 38.493 19.2252C38.4839 19.178 38.4689 19.1321 38.448 19.0872C38.4367 19.0283 38.4029 18.9798 38.3466 18.9418C38.2741 18.8825 38.2492 18.7223 38.2721 18.4612C38.2927 18.1883 38.3502 17.8534 38.4446 17.4562C38.5368 17.0473 38.6549 16.6151 38.7991 16.1595C38.8752 16.047 38.9455 15.9051 39.0102 15.7337C39.0749 15.5623 39.1262 15.4485 39.1642 15.3923C39.1551 15.3452 39.1648 15.3005 39.1933 15.2583C39.2196 15.2044 39.2563 15.1728 39.3034 15.1637L39.2829 15.0577C39.2715 14.9988 39.3052 14.8884 39.3839 14.7265C39.4744 14.5624 39.5862 14.3819 39.7193 14.1851C39.8501 13.9765 39.9891 13.7785 40.1363 13.5912C40.2811 13.3921 40.4056 13.2459 40.5098 13.1524C40.7254 12.9397 40.9593 12.7906 41.2117 12.7052C41.4759 12.6175 41.717 12.632 41.9351 12.7487C41.9773 12.7773 42.0476 12.8248 42.146 12.8913C42.2444 12.9579 42.3569 13.0339 42.4834 13.1195C42.6194 13.191 42.7566 13.2684 42.8949 13.3516L43.6615 13.8085L43.5141 14.7537C43.4519 15.2545 43.4904 15.6749 43.6293 16.0147C43.7801 16.3522 43.9571 16.6358 44.1603 16.8654C44.2443 16.9836 44.386 17.0846 44.5855 17.1683C44.7968 17.2497 44.9872 17.2862 45.1567 17.2779C45.2532 17.2715 45.3484 17.2898 45.4422 17.3327C45.5361 17.3757 45.5955 17.462 45.6206 17.5916C45.6433 17.7094 45.638 17.8083 45.6045 17.888C45.571 17.9678 45.4977 18.0309 45.3844 18.0772C45.0047 18.1995 44.6212 18.1758 44.234 18.0061C43.8586 17.8342 43.4772 17.5046 43.0897 17.0172C43.0289 16.9556 42.9391 16.8386 42.8202 16.666C42.7108 16.4793 42.6445 16.3577 42.6213 16.3011C42.5856 16.3691 42.5189 16.4981 42.4211 16.6881C42.3211 16.8663 42.2426 16.9975 42.1855 17.0819C41.5129 18.0918 40.8987 18.8032 40.3429 19.2161C39.7966 19.615 39.2982 19.7235 38.8475 19.5417ZM39.2925 18.4291C39.3085 18.5115 39.4322 18.4876 39.6637 18.3574C39.9047 18.213 40.1497 17.9946 40.3987 17.7021C40.7333 17.283 41.0611 16.8286 41.382 16.3388C41.7147 15.8468 41.9707 15.4001 42.1498 14.9989L42.4157 14.2875C42.2455 14.0393 42.0806 13.8817 41.9211 13.8148C41.771 13.7338 41.6488 13.7024 41.5545 13.7206C41.4014 13.7502 41.1989 13.9359 40.9472 14.2779C40.7073 14.6175 40.462 15.056 40.2114 15.5933C39.9607 16.1306 39.7369 16.7116 39.5398 17.3363C39.4675 17.5947 39.4058 17.845 39.3548 18.0871C39.3133 18.3151 39.2925 18.4291 39.2925 18.4291ZM47.4749 17.4167C47.3788 17.362 47.2318 17.1704 47.0339 16.8419C46.8478 16.5112 46.6503 16.1216 46.4414 15.6731C46.2421 15.2105 46.0684 14.7858 45.9203 14.3988C45.8276 14.1723 45.7359 13.9822 45.6451 13.8287C45.5662 13.6728 45.4987 13.5453 45.4429 13.4461C45.343 13.2454 45.2912 13.072 45.2875 12.9261C45.2837 12.7802 45.3446 12.6523 45.47 12.5425C45.5221 12.4958 45.5883 12.4586 45.6685 12.4309C45.7582 12.3891 45.8277 12.3695 45.8771 12.3722C46.0276 12.392 46.1993 12.585 46.3922 12.951C46.5829 13.3053 46.7857 13.7855 47.0006 14.3918C47.1183 14.7479 47.2375 15.0488 47.3582 15.2943C47.479 15.5399 47.5439 15.6862 47.5531 15.7334C47.6184 15.8185 47.6896 15.9025 47.7667 15.9854C47.8534 16.0542 47.9347 16.0324 48.0107 15.9199C48.0488 15.8637 48.1225 15.7394 48.2321 15.5472C48.3534 15.3526 48.4665 15.1475 48.5715 14.9316C48.7552 14.5539 48.8972 14.2454 48.9976 14.006C49.1098 13.7643 49.2374 13.5075 49.3804 13.2354C49.4401 13.1017 49.5094 12.9538 49.5881 12.792C49.6668 12.6301 49.7478 12.48 49.8311 12.3417C49.9239 12.1893 50.0151 12.0923 50.1048 12.0505C50.3785 11.9487 50.5431 11.9781 50.5985 12.1385C50.6539 12.2989 50.5957 12.5668 50.4238 12.9422C50.3568 13.1018 50.3064 13.2521 50.2725 13.3931C50.2482 13.52 50.217 13.6116 50.1789 13.6678C50.1211 13.8745 50.0205 14.1445 49.8771 14.4778C49.7314 14.7992 49.5882 15.1019 49.4475 15.3857C49.3045 15.6578 49.2045 15.836 49.1475 15.9203C49.1094 15.9766 49.0205 16.0854 48.8806 16.2469C48.7524 16.4061 48.637 16.5995 48.5343 16.8271C48.3039 17.1527 48.1119 17.3609 47.9583 17.4517C47.8048 17.5425 47.6436 17.5308 47.4749 17.4167ZM53.774 17.3732C53.2556 17.4733 52.7939 17.3609 52.3889 17.0358C51.9816 16.6989 51.7269 16.2348 51.6249 15.6434C51.5665 15.2147 51.5614 14.7451 51.6094 14.2348C51.667 13.7103 51.7763 13.2003 51.9372 12.7048C52.0959 12.1975 52.2895 11.7446 52.518 11.346C52.7466 10.9474 53.0062 10.6467 53.297 10.4439C53.4035 10.3622 53.5181 10.2912 53.6409 10.2308C53.7754 10.1681 53.9134 10.1231 54.0548 10.0958C54.1844 10.0708 54.3244 10.0682 54.4749 10.088C54.6231 10.096 54.7489 10.1145 54.8523 10.1434C55.0685 10.1872 55.241 10.2578 55.3698 10.3551C55.4986 10.4524 55.6282 10.6169 55.7584 10.8483C55.837 11.0654 55.8854 11.221 55.9036 11.3153C55.9218 11.4095 55.9197 11.5566 55.8972 11.7565C55.8378 12.208 55.7257 12.6085 55.561 12.9581C55.3963 13.3077 55.146 13.6249 54.8099 13.9098C54.727 13.9869 54.6242 14.0557 54.5014 14.1161C54.3881 14.1624 54.2667 14.1981 54.1371 14.2231C53.9015 14.2686 53.6637 14.2718 53.4239 14.2326C53.1937 14.1793 52.9966 14.0768 52.8329 13.9251L52.6819 13.8076L52.6562 13.9592C52.5998 14.3001 52.5624 14.6129 52.5441 14.8975C52.5375 15.1799 52.5559 15.433 52.5991 15.6569C52.6264 15.7983 52.6644 15.9315 52.713 16.0565C52.7734 16.1793 52.8421 16.2821 52.9193 16.365C52.98 16.4266 53.0669 16.4648 53.1797 16.4797C53.3021 16.4805 53.4281 16.4684 53.5577 16.4433C53.6402 16.4274 53.7226 16.4115 53.8051 16.3955C53.8971 16.3655 53.9809 16.3249 54.0566 16.2736C54.2432 16.1642 54.3875 16.0569 54.4894 15.9517C54.603 15.8442 54.7156 15.7308 54.827 15.6115L54.8908 15.5625L54.8732 15.5659C55.0009 15.4679 55.1109 15.3733 55.2033 15.2821C55.3075 15.1887 55.3596 15.1419 55.3596 15.1419C55.4067 15.1328 55.4481 15.0943 55.4839 15.0263C55.569 14.9609 55.6903 14.9558 55.8476 15.011C56.0167 15.0639 56.1138 15.1551 56.1388 15.2847C56.1384 15.3459 56.1036 15.4504 56.0344 15.5982C55.9629 15.7343 55.8785 15.8667 55.7811 15.9955C55.6956 16.122 55.6186 16.198 55.5502 16.2234C55.5406 16.2375 55.504 16.269 55.4401 16.318C55.374 16.3552 55.3314 16.3879 55.3124 16.416L55.33 16.4126C55.2513 16.5745 55.1589 16.6657 55.0529 16.6861L54.9115 16.7135C54.8803 16.805 54.7454 16.9289 54.5066 17.085C54.2656 17.2293 54.0214 17.3254 53.774 17.3732ZM53.8182 13.3314C54.0303 13.2905 54.2015 13.1963 54.3319 13.0489C54.4718 12.8874 54.5859 12.7187 54.6741 12.5428C54.8483 12.1791 54.9246 11.8466 54.9031 11.5452C54.891 11.2298 54.8147 11.0245 54.6741 10.9295C54.5966 10.9078 54.5284 10.9026 54.4695 10.914C54.4201 10.9113 54.3234 10.9484 54.1793 11.0251C54.0778 11.0691 53.9476 11.1859 53.7887 11.3755C53.6297 11.5651 53.4742 11.7724 53.3221 11.9973C53.1818 12.22 53.0771 12.4052 53.0078 12.553L52.8498 12.9685C52.9372 12.915 53.0222 12.8802 53.1046 12.8643C53.1966 12.8343 53.2508 12.83 53.2671 12.8512C53.2876 12.9573 53.3246 13.054 53.3782 13.1414C53.4412 13.2148 53.5068 13.2694 53.5748 13.3051C53.6546 13.3386 53.7357 13.3474 53.8182 13.3314ZM29.1921 39.5645C29.1613 39.5949 29.1142 39.604 29.0507 39.5918C28.9895 39.5914 28.9179 39.5686 28.8358 39.5233C28.756 39.4899 28.6681 39.4457 28.5719 39.391C28.5157 39.353 28.476 39.3056 28.4529 39.249C28.4274 39.1806 28.4164 39.0605 28.4199 38.8887C28.4234 38.7169 28.4252 38.4416 28.4253 38.0627C28.4269 37.8179 28.4344 37.572 28.4478 37.325C28.4612 37.078 28.4767 36.8733 28.4942 36.7111C28.5095 36.537 28.5171 36.45 28.5171 36.45C28.5715 36.415 28.6198 36.2224 28.6621 35.872C28.7162 35.5193 28.7684 35.0937 28.8188 34.5951C28.834 34.4211 28.863 34.1282 28.9057 33.7167C28.9485 33.3051 28.9934 32.9053 29.0407 32.5173C29.0807 32.1551 29.1099 31.8317 29.1283 31.5471C29.1443 31.2506 29.1524 31.1024 29.1524 31.1024C29.1524 31.1024 29.0743 31.1725 28.918 31.3127C28.7713 31.4388 28.5842 31.6094 28.3569 31.8244C28.1273 32.0277 27.9069 32.2474 27.6959 32.4838C27.5184 32.6403 27.3087 32.8519 27.0669 33.1186C26.8369 33.383 26.6284 33.6005 26.4413 33.7711C26.171 34.08 26.0039 34.2589 25.9401 34.3079C25.8739 34.3451 25.7821 34.3445 25.6647 34.3061C25.4865 34.2061 25.3543 34.0911 25.2681 33.9611C25.1936 33.8288 25.1804 33.6969 25.2283 33.5654C25.2496 33.5491 25.3112 33.4883 25.4131 33.3831C25.5267 33.2756 25.6499 33.154 25.7826 33.0184C25.9153 32.8827 26.0373 32.7553 26.1487 32.636C26.2719 32.5144 26.3595 32.4303 26.4116 32.3835C26.447 32.3767 26.5038 32.323 26.5821 32.2223C26.6604 32.1216 26.7458 32.0257 26.8382 31.9345C26.8834 31.8524 27.0589 31.6535 27.3646 31.3378C27.6702 31.0221 27.9997 30.6712 28.3529 30.2852C28.7365 29.93 29.0596 29.6415 29.3223 29.4197C29.5968 29.1955 29.7587 29.0848 29.8081 29.0875C29.8434 29.0807 29.901 29.094 29.9808 29.1275C30.0724 29.1586 30.1604 29.2028 30.2447 29.2598C30.3291 29.3168 30.384 29.3796 30.4094 29.448C30.496 29.5168 30.4971 29.7121 30.4126 30.034C30.386 30.1492 30.3469 30.3584 30.2955 30.6616C30.2418 30.9531 30.1855 31.294 30.1264 31.6842C30.0769 32.0605 30.0273 32.4367 29.9778 32.8129C29.9378 33.1751 29.9063 33.4867 29.8834 33.7478C29.8597 34.1313 29.826 34.4311 29.7822 34.6473C29.7502 34.8613 29.717 35.0693 29.6828 35.2715C29.658 35.4596 29.6351 35.7207 29.6141 36.0548C29.568 36.2592 29.5263 36.5178 29.489 36.8306C29.4611 37.1293 29.4391 37.4268 29.4231 37.7233C29.4047 38.0079 29.395 38.242 29.3938 38.4256C29.3496 38.703 29.3174 38.9475 29.2972 39.1592C29.2769 39.3709 29.2419 39.506 29.1921 39.5645ZM36.3181 37.6196C36.2356 37.6355 36.0992 37.6252 35.9088 37.5887C35.7279 37.5381 35.533 37.4779 35.324 37.4083C35.1127 37.3269 34.9379 37.2446 34.7996 37.1613C34.4926 36.9639 34.2166 36.7056 33.9716 36.3863C33.7266 36.067 33.53 35.7138 33.3819 35.3269C33.2316 34.9282 33.1494 34.5346 33.1355 34.1462C33.1194 33.3671 33.2588 32.5702 33.5537 31.7555C33.8462 30.929 34.2286 30.2196 34.7008 29.6273C34.9548 29.2971 35.1918 29.0374 35.412 28.8482C35.6298 28.6473 35.9075 28.4714 36.245 28.3207C36.3678 28.2603 36.5058 28.2153 36.6589 28.1857C36.8098 28.1443 36.9265 28.1157 37.009 28.0997C37.2446 28.0542 37.4894 28.0558 37.7432 28.1046C37.9971 28.1533 38.2201 28.2324 38.4124 28.342C38.6024 28.4397 38.7088 28.5475 38.7315 28.6653C38.7475 28.7478 38.7541 28.8137 38.7514 28.8631C38.7464 28.9007 38.6923 28.9051 38.5889 28.8762L38.4122 28.9103L38.6879 29.3887C38.7533 29.4738 38.8195 29.5955 38.8868 29.7536C38.9517 29.8999 38.9967 30.0379 39.0217 30.1675C39.0422 30.2736 39.0575 30.4478 39.0677 30.6903C39.0756 30.921 39.0751 31.1716 39.0663 31.4422C39.0575 31.7128 39.0452 31.9657 39.0295 32.201C39.0139 32.4362 38.9927 32.6114 38.9661 32.7265C38.9444 32.8041 38.9345 32.8793 38.9364 32.9523C38.9477 33.0112 38.958 33.0642 38.9671 33.1113C38.9359 33.2029 38.89 33.3768 38.8295 33.6329C38.7808 33.8867 38.7419 34.0653 38.713 34.1687C38.675 34.2249 38.6417 34.2741 38.6132 34.3163C38.5965 34.3562 38.6162 34.3952 38.6725 34.4332C38.677 34.4568 38.6623 34.539 38.6285 34.68C38.5923 34.8092 38.5491 34.9337 38.4989 35.0534C38.4605 35.1708 38.4236 35.2329 38.3883 35.2397C38.3883 35.2397 38.3717 35.249 38.3387 35.2677C38.3151 35.2722 38.3067 35.2922 38.3136 35.3275C38.3227 35.3746 38.27 35.5131 38.1555 35.743C38.0388 35.9611 37.8948 36.1967 37.7237 36.4498C37.6287 36.5903 37.4887 36.7518 37.304 36.9342C37.1287 37.1025 36.95 37.2531 36.768 37.386C36.5859 37.519 36.4359 37.5968 36.3181 37.6196ZM36.05 36.5164C36.1796 36.4914 36.2999 36.4498 36.4109 36.3917C36.5196 36.3218 36.6072 36.2377 36.6738 36.1393C36.8585 35.9569 37.0616 35.6794 37.2829 35.3066C37.5019 34.9221 37.6467 34.5641 37.7171 34.2328C37.8126 34.031 37.8774 33.829 37.9117 33.6269C37.9555 33.4106 38.0143 33.0509 38.0882 32.5478C38.1575 32.4 38.1915 32.2284 38.1905 32.0331C38.1894 31.8377 38.1763 31.6752 38.1513 31.5456C38.1263 31.416 38.0921 31.2393 38.0489 31.0154C38.0174 30.7893 38.0105 30.5951 38.028 30.4328C37.9688 30.1265 37.9242 29.9273 37.8942 29.8353C37.862 29.7316 37.7955 29.6405 37.6948 29.5622C37.6409 29.536 37.5692 29.5131 37.4799 29.4937C37.4024 29.472 37.3224 29.4692 37.2399 29.4851C37.1575 29.501 37.0134 29.5777 36.8077 29.7152C36.5998 29.841 36.4544 29.9424 36.3715 30.0195C36.2982 30.0826 36.205 30.1067 36.0922 30.0918C35.9911 30.0747 35.9349 30.0366 35.9235 29.9777C35.8916 29.8128 35.7833 29.8215 35.5985 30.0038C35.4115 30.1744 35.2191 30.4438 35.0213 30.812C34.8502 31.065 34.7097 31.3183 34.5998 31.5717C34.4994 31.8111 34.4537 31.9544 34.4628 32.0015C34.4719 32.0486 34.4656 32.111 34.4439 32.1885C34.4223 32.266 34.4028 32.3553 34.3857 32.4564C34.3427 32.5503 34.2982 32.6994 34.2521 32.9039C34.2061 33.1083 34.16 33.3127 34.114 33.5172C34.0774 33.7076 34.0565 33.8522 34.0511 33.951C34.0602 33.9981 34.0852 34.1277 34.1262 34.3398C34.1649 34.5401 34.2013 34.7286 34.2355 34.9053C34.2742 35.1056 34.3131 35.2753 34.3522 35.4145C34.403 35.5513 34.4564 35.6693 34.5122 35.7685C34.5658 35.856 34.6334 35.9529 34.7151 36.0593C34.7781 36.1327 34.8682 36.2192 34.9852 36.3188C35.1117 36.4044 35.1972 36.4673 35.2416 36.5076C35.394 36.6004 35.5137 36.6506 35.6007 36.6582C35.6855 36.6541 35.8352 36.6068 36.05 36.5164ZM41.9278 38.6442C41.7089 38.6498 41.547 38.5711 41.4422 38.408C41.3491 38.2427 41.3224 38.0095 41.362 37.7085C41.4017 37.4075 41.5111 37.0564 41.6902 36.6552C41.778 36.5404 41.8564 36.4397 41.9252 36.3531C41.9917 36.2547 42.0288 36.162 42.0364 36.075C42.0794 35.9811 42.1783 35.797 42.3331 35.5227C42.4856 35.2365 42.6677 34.9141 42.8795 34.5555C43.0913 34.1968 43.2984 33.8451 43.5007 33.5005C43.7148 33.1536 43.8956 32.8559 44.0432 32.6074C44.1907 32.3589 44.267 32.2158 44.2719 32.1782C44.3213 32.1809 44.3698 32.1471 44.4173 32.0768C44.4626 31.9947 44.489 31.9102 44.4966 31.8231C44.5138 31.7221 44.5568 31.6282 44.6256 31.5416C44.6921 31.4432 44.7655 31.3801 44.8457 31.3524C44.8579 31.2889 44.8782 31.2361 44.9067 31.1939C44.9353 31.1518 44.9509 31.106 44.9535 31.0566C44.9562 31.0072 44.9718 30.9614 45.0003 30.9192C45.0406 30.8747 45.0621 30.8278 45.0648 30.7784C45.1526 30.6637 45.3023 30.4575 45.5137 30.16C45.7228 29.8508 45.9652 29.4923 46.2409 29.0846C46.5166 28.6769 46.8006 28.2493 47.093 27.8017C47.3854 27.3541 47.6588 26.9346 47.9132 26.5433C48.1676 26.1519 48.3733 25.825 48.5304 25.5624C48.6874 25.2998 48.7743 25.1486 48.7911 25.1087C48.8439 24.9396 48.9479 24.8768 49.103 24.9201C49.1763 24.8571 49.2706 24.8389 49.3857 24.8655C49.3857 24.8655 49.3973 24.8938 49.4205 24.9505C49.4531 24.993 49.5044 25.0687 49.5743 25.1774C49.656 25.2839 49.7 25.3853 49.7065 25.4819C49.7106 25.5666 49.6887 25.6747 49.6408 25.8062C49.6069 25.9472 49.5578 26.0728 49.4936 26.183C49.4411 26.2909 49.3413 26.4385 49.1941 26.6258C49.0588 26.8108 48.8451 27.0966 48.5531 27.483C48.4888 27.5932 48.3557 27.79 48.1538 28.0734C47.9614 28.3428 47.7559 28.6392 47.5373 28.9625C47.3163 29.274 47.1251 29.5493 46.9635 29.7883C46.7996 30.0155 46.714 30.142 46.7068 30.1679C46.662 30.1888 46.6087 30.2296 46.5471 30.2904C46.4973 30.3489 46.4555 30.4486 46.4216 30.5896C46.3456 30.7021 46.2209 30.879 46.0475 31.1202C45.8859 31.3592 45.7338 31.5842 45.5912 31.795C45.4581 31.9918 45.3891 32.1091 45.3841 32.1467C45.3674 32.1866 45.3377 32.2229 45.2951 32.2555C45.2526 32.2882 45.1982 32.3231 45.1321 32.3604C45.118 32.3509 45.1026 32.3661 45.0859 32.406C45.0809 32.4436 45.0785 32.4624 45.0785 32.4624C45.0876 32.5095 45.0527 32.614 44.974 32.7759C44.9048 32.9237 44.786 33.0994 44.6175 33.3031C44.4628 33.5774 44.2591 33.9467 44.0066 34.4111C43.7636 34.8613 43.5134 35.3374 43.2559 35.8394C43.0079 36.3273 42.7873 36.7671 42.5941 37.1588C42.4032 37.5624 42.2861 37.8417 42.2427 37.9967C42.1917 38.2388 42.1435 38.4009 42.0983 38.4829C42.0648 38.5627 42.008 38.6165 41.9278 38.6442ZM47.6975 35.2013C47.8641 34.9247 47.9905 34.662 48.0769 34.4131C48.1632 34.1642 48.2335 33.8634 48.2875 33.5107C48.3051 33.3485 48.29 33.1436 48.2422 32.8962C48.1944 32.6488 48.1376 32.5131 48.0719 32.4891C47.9427 32.453 47.7979 32.4626 47.6375 32.518C47.4866 32.5594 47.3446 32.6785 47.2115 32.8753C46.9602 33.1561 46.7638 33.4996 46.6222 33.9058C46.4902 34.2979 46.3662 34.7313 46.2501 35.206C46.1819 35.5491 46.2026 35.814 46.312 36.0007C46.4308 36.1732 46.6142 36.205 46.862 36.0961C47.1121 35.9989 47.3906 35.7006 47.6975 35.2013ZM46.665 37.0691C46.5472 37.0918 46.4425 37.0876 46.3509 37.0564C46.2711 37.023 46.1761 36.9741 46.0659 36.9098C45.841 36.7577 45.6761 36.6001 45.5713 36.4371C45.4664 36.274 45.4169 36.1125 45.4227 35.9525C45.4303 35.8654 45.4225 35.7936 45.3994 35.737C45.3857 35.6663 45.3789 35.6309 45.3789 35.6309C45.3204 35.5811 45.3018 35.548 45.3231 35.5317C45.3443 35.5154 45.3575 35.4884 45.3624 35.4508C45.4213 35.4394 45.4288 35.383 45.3847 35.2815C45.3593 35.2131 45.3686 35.0401 45.4128 34.7627C45.457 34.4853 45.5282 34.221 45.6263 33.9698C45.667 33.8642 45.7256 33.7246 45.802 33.5509C45.8785 33.3772 45.9667 33.2013 46.0667 33.0231C46.1785 32.8426 46.2842 32.6939 46.3839 32.5769C46.5808 32.331 46.7585 32.1439 46.9171 32.0155C47.0756 31.8871 47.2563 31.7789 47.4593 31.6908C47.66 31.5909 47.8027 31.5389 47.8875 31.5348C47.97 31.5188 48.0967 31.5738 48.2677 31.6996C48.4957 31.7411 48.6705 31.8235 48.792 31.9467C48.9231 32.0558 49.0255 32.2377 49.0991 32.4923C49.1773 32.7705 49.2163 33.0991 49.2162 33.478C49.2256 33.8429 49.0941 34.3327 48.8218 34.9475C48.6498 35.3229 48.4797 35.6125 48.3112 35.8161C48.1428 36.0197 47.939 36.2302 47.6999 36.4475C47.5246 36.6158 47.3602 36.7453 47.2067 36.8361C47.0554 36.9387 46.8748 37.0163 46.665 37.0691ZM43.9811 29.1545C44.1477 28.8779 44.2741 28.6151 44.3605 28.3662C44.4468 28.1173 44.5171 27.8165 44.5712 27.4639C44.5887 27.3016 44.5736 27.0967 44.5258 26.8493C44.478 26.6019 44.4212 26.4662 44.3555 26.4422C44.2263 26.4061 44.0815 26.4157 43.9211 26.4712C43.7702 26.5125 43.6282 26.6316 43.4951 26.8284C43.2438 27.1092 43.0474 27.4527 42.9059 27.8589C42.7738 28.2511 42.6498 28.6845 42.5337 29.1591C42.4656 29.5022 42.4862 29.7671 42.5956 29.9538C42.7145 30.1264 42.899 30.1641 43.1491 30.0669C43.3969 29.9579 43.6742 29.6537 43.9811 29.1545ZM42.9275 31.008C42.8097 31.0307 42.705 31.0265 42.6134 30.9953C42.5336 30.9618 42.4386 30.913 42.3285 30.8487C42.1035 30.6966 41.9386 30.539 41.8338 30.3759C41.729 30.2129 41.6794 30.0513 41.6852 29.8913C41.6928 29.8043 41.6851 29.7325 41.6619 29.6758C41.6482 29.6051 41.6414 29.5698 41.6414 29.5698C41.5829 29.52 41.5643 29.4869 41.5856 29.4706C41.6069 29.4542 41.62 29.4273 41.6249 29.3896C41.6839 29.3783 41.6913 29.3218 41.6472 29.2203C41.6218 29.1519 41.6312 28.979 41.6754 28.7016C41.7195 28.4242 41.7907 28.1599 41.8888 27.9087C41.9295 27.8031 41.9881 27.6634 42.0646 27.4898C42.141 27.3161 42.2293 27.1402 42.3293 26.962C42.4411 26.7815 42.5468 26.6328 42.6464 26.5157C42.8433 26.2699 43.0211 26.0828 43.1796 25.9544C43.3381 25.826 43.5189 25.7178 43.7218 25.6297C43.9225 25.5298 44.0653 25.4778 44.15 25.4736C44.2325 25.4577 44.3592 25.5127 44.5302 25.6385C44.7582 25.68 44.933 25.7624 45.0546 25.8855C45.1856 25.9947 45.288 26.1765 45.3616 26.4312C45.4398 26.7094 45.4789 27.038 45.4787 27.4169C45.4881 27.7817 45.3566 28.2716 45.0843 28.8864C44.9124 29.2618 44.7422 29.5513 44.5738 29.755C44.4053 29.9586 44.2016 30.1691 43.9624 30.3864C43.7872 30.5547 43.6239 30.6901 43.4726 30.7927C43.319 30.8834 43.1373 30.9552 42.9275 31.008ZM54.514 35.7728L72.1872 32.3587L68.7731 14.6855L51.0999 18.0996L54.514 35.7728Z" fill="white"/>
</svg>
