<svg width="22" height="17" viewBox="0 0 22 17" fill="none" xmlns="http://www.w3.org/2000/svg">
<path fill-rule="evenodd" clip-rule="evenodd" d="M17.5404 1.1114L19.0004 1.2614C20.7289 1.45677 22.0269 2.93212 22.0004 4.6714V12.8714C22.0269 14.6107 20.7289 16.0861 19.0004 16.2814L17.6004 16.4314C13.232 16.8814 8.82884 16.8814 4.4604 16.4314L3.0004 16.2814C1.27192 16.0861 -0.0260481 14.6107 0.000396922 12.8714V4.6714C-0.0260481 2.93212 1.27192 1.45677 3.0004 1.2614L4.4004 1.1114C8.76884 0.661433 13.172 0.661433 17.5404 1.1114ZM10.1104 11.9914L14.0004 9.39138H14.0604C14.27 9.25478 14.3964 9.02158 14.3964 8.77138C14.3964 8.52118 14.27 8.28798 14.0604 8.15138L10.1704 5.5514C9.94069 5.39617 9.64419 5.38027 9.39919 5.51007C9.15429 5.63987 9.00089 5.89419 9.0004 6.1714V11.3714C9.01329 11.6295 9.15809 11.8628 9.38369 11.9888C9.60929 12.1148 9.88389 12.1158 10.1104 11.9914Z" fill="white"/>
</svg>
